<?xml version="1.0" standalone="no"?>
<!DOCTYPE svg PUBLIC "-//W3C//DTD SVG 1.1//EN" "http://www.w3.org/Graphics/SVG/1.1/DTD/svg11.dtd" >
<svg xmlns="http://www.w3.org/2000/svg" xmlns:xlink="http://www.w3.org/1999/xlink" version="1.1">
<metadata>
Created by FontForge 20170731 at Wed May 30 06:35:01 2007
 By Aleksey,,,
2007 Vic Fieger
</metadata>
<defs>
<font id="Virgo01" horiz-adv-x="1262" >
  <font-face 
    font-family="Virgo 01"
    font-weight="400"
    font-stretch="normal"
    units-per-em="2048"
    panose-1="2 0 0 0 0 0 0 0 0 0"
    ascent="1638"
    descent="-410"
    x-height="1279"
    cap-height="1278"
    bbox="-159 -387 1354 1803"
    underline-thickness="150"
    underline-position="-442"
    unicode-range="U+0020-F002"
  />
<missing-glyph horiz-adv-x="1536" 
d="M256 0v1280h1024v-1280h-1024zM288 32h960v1216h-960v-1216z" />
    <glyph glyph-name=".notdef" horiz-adv-x="1536" 
d="M256 0v1280h1024v-1280h-1024zM288 32h960v1216h-960v-1216z" />
    <glyph glyph-name=".null" horiz-adv-x="0" 
 />
    <glyph glyph-name="nonmarkingreturn" horiz-adv-x="569" 
 />
    <glyph glyph-name="space" unicode=" " horiz-adv-x="999" 
 />
    <glyph glyph-name="space" unicode="&#xa0;" horiz-adv-x="999" 
 />
    <glyph glyph-name="exclam" unicode="!" horiz-adv-x="639" 
d="M158 638v641q0 158 160 159h2q158 0 158 -161v-640q-1 -159 -160 -159q-158 0 -160 160zM239 20.5q-38 20.5 -59 58.5t-21 80q0 40 20.5 78t58.5 59t80 21t79.5 -21t58.5 -59t21 -78q0 -42 -21.5 -80t-59.5 -58.5t-78 -20.5q-41 0 -79 20.5z" />
    <glyph glyph-name="quotedbl" unicode="&#x22;" horiz-adv-x="911" 
d="M240 1501q159 0 160 -160v-240q0 -161 -158 -161h-2q-160 0 -160 158v242q2 161 160 161zM666 1501q159 0 160 -160v-240q0 -161 -158 -161h-2q-160 0 -160 158v242q2 161 160 161z" />
    <glyph glyph-name="numbersign" unicode="#" horiz-adv-x="1139" 
 />
    <glyph glyph-name="dollar" unicode="$" horiz-adv-x="1139" 
 />
    <glyph glyph-name="percent" unicode="%" horiz-adv-x="1821" 
 />
    <glyph glyph-name="ampersand" unicode="&#x26;" horiz-adv-x="1366" 
 />
    <glyph glyph-name="quotesingle" unicode="'" horiz-adv-x="472" 
d="M240 1501q159 0 160 -160v-240q0 -161 -158 -161h-2q-160 0 -160 158v242q2 161 160 161z" />
    <glyph glyph-name="parenleft" unicode="(" horiz-adv-x="682" 
 />
    <glyph glyph-name="parenright" unicode=")" horiz-adv-x="682" 
 />
    <glyph glyph-name="asterisk" unicode="*" horiz-adv-x="797" 
 />
    <glyph glyph-name="plus" unicode="+" horiz-adv-x="1196" 
 />
    <glyph glyph-name="comma" unicode="," horiz-adv-x="639" 
d="M318 314q159 0 160 -160v-239q0 -161 -158 -161h-2q-160 0 -160 158v241q2 161 160 161z" />
    <glyph glyph-name="hyphen" unicode="-" horiz-adv-x="840" 
d="M102 755q2 160 158 163h322q160 -2 162 -161q-3 -160 -161 -160h-324q-156 0 -157 158z" />
    <glyph glyph-name="hyphen" unicode="&#xad;" horiz-adv-x="840" 
d="M102 755q2 160 158 163h322q160 -2 162 -161q-3 -160 -161 -160h-324q-156 0 -157 158z" />
    <glyph glyph-name="period" unicode="." horiz-adv-x="639" 
d="M318 319q40 0 78 -20.5t59.5 -58.5t21.5 -81q0 -40 -21 -78t-58.5 -59t-79.5 -21q-41 0 -79 21t-59 59t-21 78q0 43 21 81t59 58.5t79 20.5z" />
    <glyph glyph-name="slash" unicode="/" horiz-adv-x="569" 
 />
    <glyph glyph-name="zero" unicode="0" horiz-adv-x="1421" 
d="M710 1279q162 0 315 -83t240 -237t87 -321q0 -166 -84.5 -318.5t-237.5 -237t-320 -84.5q-166 0 -318.5 84.5t-237 237t-84.5 318.5q0 167 85.5 321t239 237t315.5 83zM553.5 919q-76.5 -41 -119.5 -118t-43 -161t42.5 -160t118.5 -118t160 -42q83 0 159.5 42t118.5 118
t42 160t-43 161t-120 118t-157 41q-82 0 -158.5 -41zM710 796q40 0 78 -20.5t59.5 -58.5t21.5 -81q0 -40 -21 -78t-58.5 -59t-79.5 -21t-80 21t-58.5 59t-20.5 78q0 43 21 81t59 58.5t79 20.5z" />
    <glyph glyph-name="one" unicode="1" horiz-adv-x="940" 
d="M71 162q0 160 160 160h82v637q-159 -2 -157 159q1 155 158 160h163q155 0 156 -156v-800h80q162 -2 162 -165q-1 -153 -150 -155l-494 -2q-159 3 -160 162z" />
    <glyph glyph-name="two" unicode="2" 
d="M634 1279q558 0 559 -640q0 -160 -160 -159l-641 1q1 -161 239 -162l402 2q157 -1 160 -161q-1 -160 -160 -160h-400q-561 1 -562 640q1 159 160 160l641 -1q0 160 -237 159h-402q-159 4 -162 162q4 159 160 159h403z" />
    <glyph glyph-name="three" unicode="3" 
d="M231 1279h560q159 0 281 -120q119 -118 119 -275v-5q-2 -161 -83 -237q84 -83 84 -236v-6q-2 -158 -122.5 -279t-268.5 -121h-574q-156 0 -156 160q0 158 160 158l558 3q81 0 81 79q0 81 -79 81l-242 1q-162 0 -161 168q0 152 160 150l243 -1q80 0 78 88q2 71 -78 71
h-560q-160 0 -160 161q0 159 160 160z" />
    <glyph glyph-name="four" unicode="4" horiz-adv-x="1249" 
d="M219 -1q-41 0 -79 20t-59.5 58.5t-21.5 80.5t154.5 353t175 349t59 59.5t80.5 21.5q41 0 79 -21.5t59.5 -59.5t23.5 -85t-213 -454h380l-1 803q0 156 161 158q160 -2 162 -158l-2 -1284q0 -157 -160 -162q-160 6 -160 162v159h-638z" />
    <glyph glyph-name="five" unicode="5" 
d="M1033 1279q155 0 159 -159q-3 -158 -161 -162h-641l-2 -161l644 3q160 -1 160 -160q0 -639 -562 -640h-399q-159 0 -160 160q2 160 159 161l402 -2q238 1 240 162l-641 -1q-161 -1 -160 159l-1 481q2 159 160 159h803z" />
    <glyph glyph-name="six" unicode="6" horiz-adv-x="1241" 
d="M873 1279q159 0 160 -159t-158 -160h-404q-81 -1 -81 -81l1 -80l400 1q162 -1 282 -121q119 -120 119 -276v-4q-2 -159 -120 -279q-116 -118 -274 -118h-5l-322 -1q-159 0 -279 119t-121 282v482q0 155 121 276q119 119 276 119h405zM392 480v-79q1 -82 79 -82h323
q81 2 81 81q1 81 -82 80h-401z" />
    <glyph glyph-name="seven" unicode="7" horiz-adv-x="1224" 
d="M1021 1277q40 0 76.5 -19t58 -57.5t21.5 -79.5q0 -42 -240 -523t-261.5 -519t-59.5 -59t-79 -21q-42 0 -80.5 21t-59 59t-21.5 78q0 36 384 801h-540q-161 3 -161 160v2q0 157 157 157h805z" />
    <glyph glyph-name="eight" unicode="8" horiz-adv-x="1258" 
d="M789 321q81 0 81 79q0 81 -79 81h-322q-80 0 -80 -80q2 -83 80 -82zM469 1279h322q159 0 281 -120q119 -118 119 -275v-5q-2 -161 -83 -237q84 -83 84 -236v-6q-2 -158 -122.5 -279t-268.5 -121h-334q-156 0 -275 120q-121 121 -121 280t81 239q-80 79 -81 242
q0 157 120.5 275t277.5 123zM791 799q80 0 78 88q2 71 -78 71h-322q-80 0 -80 -79q0 -80 80 -80h322z" />
    <glyph glyph-name="nine" unicode="9" horiz-adv-x="1258" 
d="M389 1q-158 1 -159 158q-1 160 158 161h404q81 2 81 81l-1 79h-400q-162 2 -281 123q-119 119 -119 276v3q1 158 119 279q116 118 274 118h327q159 0 279.5 -119t120.5 -281v-484q0 -154 -120 -274t-277 -120h-406zM871 800v79q0 82 -78 82h-324q-81 -2 -80 -81
q-1 -81 81 -80h401z" />
    <glyph glyph-name="colon" unicode=":" horiz-adv-x="639" 
d="M318 1003q40 0 78 -20.5t59.5 -58.5t21.5 -81q0 -40 -21 -78t-58.5 -59t-79.5 -21q-41 0 -79 21t-59 59t-21 78q0 43 21 81t59 58.5t79 20.5zM318 424q40 0 78 -21t59.5 -59t21.5 -80q0 -41 -21 -79t-58.5 -59t-79.5 -21q-41 0 -79 21t-59 59t-21 79q0 42 21 80t59 59
t79 21z" />
    <glyph glyph-name="semicolon" unicode=";" horiz-adv-x="639" 
d="M319 1003q40 0 78 -20.5t59.5 -58.5t21.5 -81q0 -40 -21 -78t-58.5 -59t-79.5 -21q-41 0 -79 21t-59 59t-21 78q0 43 21 81t59 58.5t79 20.5zM319 314q159 0 160 -160v-239q0 -161 -158 -161h-2q-160 0 -160 158v241q2 161 160 161z" />
    <glyph glyph-name="semicolon" unicode="&#x37e;" horiz-adv-x="639" 
d="M319 1003q40 0 78 -20.5t59.5 -58.5t21.5 -81q0 -40 -21 -78t-58.5 -59t-79.5 -21q-41 0 -79 21t-59 59t-21 78q0 43 21 81t59 58.5t79 20.5zM319 314q159 0 160 -160v-239q0 -161 -158 -161h-2q-160 0 -160 158v241q2 161 160 161z" />
    <glyph glyph-name="less" unicode="&#x3c;" horiz-adv-x="1196" 
 />
    <glyph glyph-name="equal" unicode="=" horiz-adv-x="1196" 
 />
    <glyph glyph-name="greater" unicode="&#x3e;" horiz-adv-x="1196" 
 />
    <glyph glyph-name="question" unicode="?" horiz-adv-x="1241" 
d="M521 1440q558 0 558 -401v-2q0 -397 -404 -395q-76 0 -80 -84q0 -160 -159 -157q-161 -2 -160 162q1 159 121 278.5t280 116.5q82 2 82 82t-80 79h-396q-159 4 -162 162q4 159 160 159h240zM440 319q40 0 78 -21t59.5 -59t21.5 -80q0 -40 -21 -78t-58.5 -59t-79.5 -21
q-41 0 -79 21t-59 59t-21 78q0 42 21 80t59 59t79 21z" />
    <glyph glyph-name="at" unicode="@" horiz-adv-x="2079" 
 />
    <glyph glyph-name="A" unicode="A" horiz-adv-x="1425" 
d="M232 -1q-41 0 -79 20.5t-59.5 59t-21.5 80.5t239 522.5t260 518.5t59.5 59.5t79.5 21.5q42 0 80 -21.5t59 -59.5t261.5 -518.5t240.5 -522.5t-21.5 -80.5t-60 -59t-78.5 -20.5h-959zM930 321l-220 451l-220 -451h440z" />
    <glyph glyph-name="B" unicode="B" 
d="M231 1279h560q159 0 281 -120q119 -118 119 -275v-5q-2 -161 -83 -237q84 -83 84 -236v-6q-2 -158 -122.5 -279t-268.5 -121h-574q-156 0 -156 160v959q0 159 160 160zM392 958v-637h397q81 0 81 79q0 81 -79 81l-79 1q-162 0 -161 168q0 152 160 150l80 -1q80 0 78 88
q2 71 -78 71h-399z" />
    <glyph glyph-name="C" unicode="C" 
d="M710 1279l321 -1q159 -2 160 -158q-1 -162 -161 -161l-319 -1q-319 3 -319 -319q0 -318 320 -320h318q160 -3 160 -158q0 -160 -158 -161h-320q-640 0 -641 640q0 639 637 639h2z" />
    <glyph glyph-name="D" unicode="D" horiz-adv-x="1421" 
d="M231 1279h480q641 -1 641 -640q-1 -637 -624 -639h-497q-160 -1 -160 160v959q0 159 160 160zM392 958v-637h321q318 -3 316 321q2 315 -317 316h-320z" />
    <glyph glyph-name="E" unicode="E" 
d="M231 1281l810 -2q149 -2 150 -155q0 -163 -162 -166h-637v-637h636q161 -1 161 -162q0 -157 -158 -159h-800q-159 0 -160 155v964q1 159 160 162zM469 636q1 160 158 162h322q160 -1 162 -160q-3 -160 -162 -160h-321q-159 -1 -159 158z" />
    <glyph glyph-name="F" unicode="F" 
d="M231 1281l810 -2q149 -2 150 -155q0 -163 -162 -166h-637v-158h640q158 -2 159 -160q-2 -160 -159 -160l-640 -1v-320q-1 -157 -161 -159q-159 0 -160 155v964q1 159 160 162z" />
    <glyph glyph-name="G" unicode="G" horiz-adv-x="1421" 
d="M710 1279l322 1q156 -1 158 -162q-2 -158 -158 -156l-320 -2q-82 0 -158.5 -41t-119.5 -118t-43 -161t42.5 -160t118.5 -118t160 -42q83 0 168 39.5t124 122.5h-134q-162 -1 -162 157q0 160 160 162l321 -1q162 -4 163 -162q0 -166 -84.5 -318.5t-237.5 -237t-320 -84.5
q-166 0 -318.5 84.5t-237 237t-84.5 318.5q0 167 85.5 321t239 237t315.5 83z" />
    <glyph glyph-name="H" unicode="H" 
d="M1191 1121l-1 -961q0 -160 -159 -160h-2q-160 0 -159 158v323l-235 -1q-164 0 -166 159q0 161 166 160l235 3v319q0 161 161 161q159 0 160 -161zM392 1120l-1 -960q-1 -158 -161 -160q-159 1 -159 159v960q0 160 160 162q161 -1 161 -161z" />
    <glyph glyph-name="I" unicode="I" horiz-adv-x="464" 
d="M230 1278q160 -1 163 -158v-962q-2 -159 -161 -162q-160 4 -160 162v961q-1 159 158 159z" />
    <glyph glyph-name="J" unicode="J" horiz-adv-x="711" 
d="M633 1119v-723q0 -235 -79.5 -315.5t-318.5 -80.5q-159 2 -160 159q0 161 160 162q78 -2 77 77l-1 726q2 153 162 157q160 -3 160 -162z" />
    <glyph glyph-name="K" unicode="K" 
d="M1151 1242q40 -38 40 -114v-7q0 -85 -85 -159l-293 -321l294 -319q84 -78 84 -151q0 -5 -1 -11v-13q0 -71 -39 -108q-43 -39 -118 -39h-4q-82 0 -123 41.5t-197.5 230t-197 236t-42.5 131.5q0 78 41.5 129t200.5 243.5t199.5 231.5t120.5 39q78 0 120 -40zM392 1120
l-1 -960q-1 -158 -161 -160q-159 1 -159 159v960q0 160 160 162q161 -1 161 -161z" />
    <glyph glyph-name="L" unicode="L" horiz-adv-x="1241" 
d="M231 1281q161 -4 162 -157l-1 -803h636q161 -1 161 -162q0 -157 -158 -159h-800q-159 0 -160 155v964q1 159 160 162z" />
    <glyph glyph-name="M" unicode="M" horiz-adv-x="1425" 
d="M231 1279q81 -2 119.5 -41t362.5 -362q320 320 360 361.5t119 41.5q159 -1 160 -159l1 -960q0 -160 -162 -162q-158 1 -161 162v565q-161 -165 -200.5 -205.5t-118.5 -40.5q-77 0 -118 41.5t-201 201.5v-562q-1 -159 -160 -160q-161 -1 -160 160v960q0 159 159 159z" />
    <glyph glyph-name="N" unicode="N" 
d="M254 1278q87 -7 139 -66l479 -611v537q3 137 136 140q180 -3 182 -144l1 -995q-1 -137 -183 -139q-82 1 -134 66l-481 609v-536q-1 -138 -139 -139q-181 0 -182 141v998q0 138 182 139z" />
    <glyph glyph-name="O" unicode="O" horiz-adv-x="1425" 
d="M710 1279q162 0 315 -83t240 -237t87 -321q0 -166 -84.5 -318.5t-237.5 -237t-320 -84.5q-166 0 -318.5 84.5t-237 237t-84.5 318.5q0 167 85.5 321t239 237t315.5 83zM553.5 919q-76.5 -41 -119.5 -118t-43 -161t42.5 -160t118.5 -118t160 -42q83 0 159.5 42t118.5 118
t42 160t-43 161t-120 118t-157 41q-82 0 -158.5 -41z" />
    <glyph glyph-name="P" unicode="P" 
d="M231 1279h562q154 0 276 -118q121 -118 121 -277v-3q0 -166 -119.5 -283.5t-283.5 -117.5l-158 -2q-158 0 -159 162q0 162 162 161l113 1q127 -2 125 77q0 79 -125 79h-353v-798q1 -160 -161 -160q-160 0 -160 158v963q1 157 160 158z" />
    <glyph glyph-name="Q" unicode="Q" horiz-adv-x="1425" 
d="M710 1279q162 0 315 -83t240 -237t87 -321q0 -166 -129 -319q125 1 131 -160q0 -161 -162 -161h-482q-166 0 -318.5 84.5t-237 237t-84.5 318.5q0 167 85.5 321t239 237t315.5 83zM553.5 919q-76.5 -41 -119.5 -118t-43 -161t42.5 -160t118.5 -118t160 -42q83 0 159.5 42
t118.5 118t42 160t-43 161t-120 118t-157 41q-82 0 -158.5 -41z" />
    <glyph glyph-name="R" unicode="R" 
d="M231 1279h562q156 0 277 -121t120 -277q0 -166 -60.5 -280t-181.5 -118l197 -200q48 -47 48 -124q-3 -159 -160 -159h-4q-80 0 -157 78l-320 397q-81 86 -82 165q0 162 162 161l113 1q127 -2 125 77q0 79 -125 79h-353v-798q1 -160 -161 -160q-160 0 -160 158v963
q1 157 160 158z" />
    <glyph glyph-name="S" unicode="S" 
d="M1193 1120q0 -160 -154 -161l-487 1q-162 -2 -163 -82q2 -76 164 -75h157q483 -2 485 -406q0 -393 -484 -395h-481q-159 1 -159 157q1 159 158 157l482 3q162 1 162 82q0 82 -164 81h-157q-481 1 -481 396v5q0 396 481 397h481q159 -1 160 -160z" />
    <glyph glyph-name="T" unicode="T" horiz-adv-x="1237" 
d="M218 1281l810 -2q149 -2 150 -155q0 -163 -162 -166h-239l1 -799q-2 -157 -161 -159q-160 0 -160 155l1 803h-240q-160 0 -160 161q1 159 160 162z" />
    <glyph glyph-name="U" unicode="U" horiz-adv-x="1266" 
d="M235 1281q160 0 161 -155l-1 -487q2 -320 243 -321q240 2 239 322v481q2 159 161 161q159 -4 160 -162v-481q-1 -639 -560 -639q-562 -4 -563 639v482q1 158 160 160z" />
    <glyph glyph-name="V" unicode="V" horiz-adv-x="1383" 
d="M1170 1281q40 0 78.5 -21t60 -59.5t21.5 -79.5q0 -42 -240.5 -523t-261.5 -519t-59 -59t-80 -21q-41 0 -79.5 21t-59.5 59t-260 519t-239 523q0 41 21.5 79.5t59.5 59.5t79 21q40 0 78.5 -21t60 -59.5t339.5 -693.5q321 655 342.5 693.5t59.5 59.5t79 21z" />
    <glyph glyph-name="W" unicode="W" horiz-adv-x="1425" 
d="M71 157v960q0 160 156 160h4q159 -1 160 -160v-562q160 160 201 201.5t118 41.5q79 0 119 -40.5t200 -205.5v565q3 161 161 162q162 -3 162 -162l-1 -960q-1 -158 -160 -159q-79 0 -119 41t-360 361q-324 -322 -362.5 -361t-119.5 -41q-159 0 -159 159z" />
    <glyph glyph-name="X" unicode="X" horiz-adv-x="1271" 
d="M232 1282q80 0 120.5 -39t284.5 -334q248 300 288.5 338.5t120.5 38.5q78 0 120 -40q40 -38 40 -114v-7q0 -85 -85 -159l-272 -321l273 -318q84 -79 84 -152q0 -5 -1 -11v-13q0 -71 -39 -108q-44 -41 -122 -39q-82 -1 -123.5 41.5t-279.5 331.5q-243 -294 -284 -335.5
t-123 -41.5h-4q-75 0 -117 39q-40 37 -40 108v13q-1 6 -1 11q0 73 84 151l285 319l-284 321q-85 74 -85 159v7q0 76 40 114q42 40 120 40z" />
    <glyph glyph-name="Y" unicode="Y" horiz-adv-x="1249" 
d="M219 1282q80 0 120.5 -39t284.5 -334q248 300 288.5 338.5t120.5 38.5q78 0 120 -40q40 -38 40 -112v-9q0 -85 -85 -159l-327 -382l-1 -425q-3 -157 -161 -159h-7q-151 0 -151 164l-2 422l-315 376q-85 74 -85 159v9q0 74 40 112q42 40 120 40z" />
    <glyph glyph-name="Z" unicode="Z" 
d="M1192 1098q-7 -87 -66 -139l-540 -640h466q137 -3 140 -136q-3 -180 -143 -181l-838 -2q-138 2 -140 183q2 83 66 134l544 642h-470q-138 1 -140 139q0 181 142 182h841q137 0 138 -182z" />
    <glyph glyph-name="bracketleft" unicode="[" horiz-adv-x="569" 
 />
    <glyph glyph-name="backslash" unicode="\" horiz-adv-x="569" 
 />
    <glyph glyph-name="bracketright" unicode="]" horiz-adv-x="569" 
 />
    <glyph glyph-name="asciicircum" unicode="^" horiz-adv-x="961" 
 />
    <glyph glyph-name="underscore" unicode="_" horiz-adv-x="1139" 
 />
    <glyph glyph-name="grave" unicode="`" horiz-adv-x="620" 
d="M402 1688l114 -172q29 -44 29 -71q0 -41 -68 -41h-1q-113 0 -188 114l-113 170q-30 45 -30 73q0 41 68 41q112 0 189 -114z" />
    <glyph glyph-name="a" unicode="a" horiz-adv-x="1425" 
d="M232 -1q-41 0 -79 20.5t-59.5 59t-21.5 80.5t239 522.5t260 518.5t59.5 59.5t79.5 21.5q42 0 80 -21.5t59 -59.5t261.5 -518.5t240.5 -522.5t-21.5 -80.5t-60 -59t-78.5 -20.5h-959zM930 321l-220 451l-220 -451h440z" />
    <glyph glyph-name="b" unicode="b" 
d="M231 1279h560q159 0 281 -120q119 -118 119 -275v-5q-2 -161 -83 -237q84 -83 84 -236v-6q-2 -158 -122.5 -279t-268.5 -121h-574q-156 0 -156 160v959q0 159 160 160zM392 958v-637h397q81 0 81 79q0 81 -79 81l-79 1q-162 0 -161 168q0 152 160 150l80 -1q80 0 78 88
q2 71 -78 71h-399z" />
    <glyph glyph-name="c" unicode="c" 
d="M710 1279l321 -1q159 -2 160 -158q-1 -162 -161 -161l-319 -1q-319 3 -319 -319q0 -318 320 -320h318q160 -3 160 -158q0 -160 -158 -161h-320q-640 0 -641 640q0 639 637 639h2z" />
    <glyph glyph-name="d" unicode="d" horiz-adv-x="1421" 
d="M231 1279h480q641 -1 641 -640q-1 -637 -624 -639h-497q-160 -1 -160 160v959q0 159 160 160zM392 958v-637h321q318 -3 316 321q2 315 -317 316h-320z" />
    <glyph glyph-name="e" unicode="e" 
d="M231 1281l810 -2q149 -2 150 -155q0 -163 -162 -166h-637v-637h636q161 -1 161 -162q0 -157 -158 -159h-800q-159 0 -160 155v964q1 159 160 162zM469 636q1 160 158 162h322q160 -1 162 -160q-3 -160 -162 -160h-321q-159 -1 -159 158z" />
    <glyph glyph-name="f" unicode="f" 
d="M231 1281l810 -2q149 -2 150 -155q0 -163 -162 -166h-637v-158h640q158 -2 159 -160q-2 -160 -159 -160l-640 -1v-320q-1 -157 -161 -159q-159 0 -160 155v964q1 159 160 162z" />
    <glyph glyph-name="g" unicode="g" horiz-adv-x="1421" 
d="M710 1279l322 1q156 -1 158 -162q-2 -158 -158 -156l-320 -2q-82 0 -158.5 -41t-119.5 -118t-43 -161t42.5 -160t118.5 -118t160 -42q83 0 168 39.5t124 122.5h-134q-162 -1 -162 157q0 160 160 162l321 -1q162 -4 163 -162q0 -166 -84.5 -318.5t-237.5 -237t-320 -84.5
q-166 0 -318.5 84.5t-237 237t-84.5 318.5q0 167 85.5 321t239 237t315.5 83z" />
    <glyph glyph-name="h" unicode="h" 
d="M1191 1121l-1 -961q0 -160 -159 -160h-2q-160 0 -159 158v323l-235 -1q-164 0 -166 159q0 161 166 160l235 3v319q0 161 161 161q159 0 160 -161zM392 1120l-1 -960q-1 -158 -161 -160q-159 1 -159 159v960q0 160 160 162q161 -1 161 -161z" />
    <glyph glyph-name="i" unicode="i" horiz-adv-x="464" 
d="M230 1278q160 -1 163 -158v-962q-2 -159 -161 -162q-160 4 -160 162v961q-1 159 158 159z" />
    <glyph glyph-name="j" unicode="j" horiz-adv-x="711" 
d="M633 1119v-723q0 -235 -79.5 -315.5t-318.5 -80.5q-159 2 -160 159q0 161 160 162q78 -2 77 77l-1 726q2 153 162 157q160 -3 160 -162z" />
    <glyph glyph-name="k" unicode="k" 
d="M1151 1242q40 -38 40 -114v-7q0 -85 -85 -159l-293 -321l294 -319q84 -78 84 -151q0 -5 -1 -11v-13q0 -71 -39 -108q-43 -39 -118 -39h-4q-82 0 -123 41.5t-197.5 230t-197 236t-42.5 131.5q0 78 41.5 129t200.5 243.5t199.5 231.5t120.5 39q78 0 120 -40zM392 1120
l-1 -960q-1 -158 -161 -160q-159 1 -159 159v960q0 160 160 162q161 -1 161 -161z" />
    <glyph glyph-name="l" unicode="l" horiz-adv-x="1241" 
d="M231 1281q161 -4 162 -157l-1 -803h636q161 -1 161 -162q0 -157 -158 -159h-800q-159 0 -160 155v964q1 159 160 162z" />
    <glyph glyph-name="m" unicode="m" horiz-adv-x="1425" 
d="M231 1279q81 -2 119.5 -41t362.5 -362q320 320 360 361.5t119 41.5q159 -1 160 -159l1 -960q0 -160 -162 -162q-158 1 -161 162v565q-161 -165 -200.5 -205.5t-118.5 -40.5q-77 0 -118 41.5t-201 201.5v-562q-1 -159 -160 -160q-161 -1 -160 160v960q0 159 159 159z" />
    <glyph glyph-name="n" unicode="n" 
d="M254 1278q87 -7 139 -66l479 -611v537q3 137 136 140q180 -3 182 -144l1 -995q-1 -137 -183 -139q-82 1 -134 66l-481 609v-536q-1 -138 -139 -139q-181 0 -182 141v998q0 138 182 139z" />
    <glyph glyph-name="o" unicode="o" horiz-adv-x="1425" 
d="M710 1279q162 0 315 -83t240 -237t87 -321q0 -166 -84.5 -318.5t-237.5 -237t-320 -84.5q-166 0 -318.5 84.5t-237 237t-84.5 318.5q0 167 85.5 321t239 237t315.5 83zM553.5 919q-76.5 -41 -119.5 -118t-43 -161t42.5 -160t118.5 -118t160 -42q83 0 159.5 42t118.5 118
t42 160t-43 161t-120 118t-157 41q-82 0 -158.5 -41z" />
    <glyph glyph-name="p" unicode="p" 
d="M231 1279h562q154 0 276 -118q121 -118 121 -277v-3q0 -166 -119.5 -283.5t-283.5 -117.5l-158 -2q-158 0 -159 162q0 162 162 161l113 1q127 -2 125 77q0 79 -125 79h-353v-798q1 -160 -161 -160q-160 0 -160 158v963q1 157 160 158z" />
    <glyph glyph-name="q" unicode="q" horiz-adv-x="1425" 
d="M710 1279q162 0 315 -83t240 -237t87 -321q0 -166 -129 -319q125 1 131 -160q0 -161 -162 -161h-482q-166 0 -318.5 84.5t-237 237t-84.5 318.5q0 167 85.5 321t239 237t315.5 83zM553.5 919q-76.5 -41 -119.5 -118t-43 -161t42.5 -160t118.5 -118t160 -42q83 0 159.5 42
t118.5 118t42 160t-43 161t-120 118t-157 41q-82 0 -158.5 -41z" />
    <glyph glyph-name="r" unicode="r" 
d="M231 1279h562q156 0 277 -121t120 -277q0 -166 -60.5 -280t-181.5 -118l197 -200q48 -47 48 -124q-3 -159 -160 -159h-4q-80 0 -157 78l-320 397q-81 86 -82 165q0 162 162 161l113 1q127 -2 125 77q0 79 -125 79h-353v-798q1 -160 -161 -160q-160 0 -160 158v963
q1 157 160 158z" />
    <glyph glyph-name="s" unicode="s" 
d="M1193 1120q0 -160 -154 -161l-487 1q-162 -2 -163 -82q2 -76 164 -75h157q483 -2 485 -406q0 -393 -484 -395h-481q-159 1 -159 157q1 159 158 157l482 3q162 1 162 82q0 82 -164 81h-157q-481 1 -481 396v5q0 396 481 397h481q159 -1 160 -160z" />
    <glyph glyph-name="t" unicode="t" horiz-adv-x="1237" 
d="M218 1281l810 -2q149 -2 150 -155q0 -163 -162 -166h-239l1 -799q-2 -157 -161 -159q-160 0 -160 155l1 803h-240q-160 0 -160 161q1 159 160 162z" />
    <glyph glyph-name="u" unicode="u" horiz-adv-x="1266" 
d="M235 1281q160 0 161 -155l-1 -487q2 -320 243 -321q240 2 239 322v481q2 159 161 161q159 -4 160 -162v-481q-1 -639 -560 -639q-562 -4 -563 639v482q1 158 160 160z" />
    <glyph glyph-name="v" unicode="v" horiz-adv-x="1383" 
d="M1170 1281q40 0 78.5 -21t60 -59.5t21.5 -79.5q0 -42 -240.5 -523t-261.5 -519t-59 -59t-80 -21q-41 0 -79.5 21t-59.5 59t-260 519t-239 523q0 41 21.5 79.5t59.5 59.5t79 21q40 0 78.5 -21t60 -59.5t339.5 -693.5q321 655 342.5 693.5t59.5 59.5t79 21z" />
    <glyph glyph-name="w" unicode="w" horiz-adv-x="1425" 
d="M71 157v960q0 160 156 160h4q159 -1 160 -160v-562q160 160 201 201.5t118 41.5q79 0 119 -40.5t200 -205.5v565q3 161 161 162q162 -3 162 -162l-1 -960q-1 -158 -160 -159q-79 0 -119 41t-360 361q-324 -322 -362.5 -361t-119.5 -41q-159 0 -159 159z" />
    <glyph glyph-name="x" unicode="x" horiz-adv-x="1271" 
d="M232 1282q80 0 120.5 -39t284.5 -334q248 300 288.5 338.5t120.5 38.5q78 0 120 -40q40 -38 40 -114v-7q0 -85 -85 -159l-272 -321l273 -318q84 -79 84 -152q0 -5 -1 -11v-13q0 -71 -39 -108q-44 -41 -122 -39q-82 -1 -123.5 41.5t-279.5 331.5q-243 -294 -284 -335.5
t-123 -41.5h-4q-75 0 -117 39q-40 37 -40 108v13q-1 6 -1 11q0 73 84 151l285 319l-284 321q-85 74 -85 159v7q0 76 40 114q42 40 120 40z" />
    <glyph glyph-name="y" unicode="y" horiz-adv-x="1249" 
d="M219 1282q80 0 120.5 -39t284.5 -334q248 300 288.5 338.5t120.5 38.5q78 0 120 -40q40 -38 40 -112v-9q0 -85 -85 -159l-327 -382l-1 -425q-3 -157 -161 -159h-7q-151 0 -151 164l-2 422l-315 376q-85 74 -85 159v9q0 74 40 112q42 40 120 40z" />
    <glyph glyph-name="z" unicode="z" 
d="M1192 1098q-7 -87 -66 -139l-540 -640h466q137 -3 140 -136q-3 -180 -143 -181l-838 -2q-138 2 -140 183q2 83 66 134l544 642h-470q-138 1 -140 139q0 181 142 182h841q137 0 138 -182z" />
    <glyph glyph-name="braceleft" unicode="{" horiz-adv-x="684" 
 />
    <glyph glyph-name="bar" unicode="|" horiz-adv-x="532" 
 />
    <glyph glyph-name="braceright" unicode="}" horiz-adv-x="684" 
 />
    <glyph glyph-name="asciitilde" unicode="~" horiz-adv-x="1196" 
 />
    <glyph glyph-name="exclamdown" unicode="&#xa1;" horiz-adv-x="639" 
d="M318 959q159 0 160 -159v-640q0 -160 -158 -160h-2q-160 0 -160 158v641q2 160 160 160zM318 1438q40 0 78 -21t59.5 -59t21.5 -79t-21 -79t-58.5 -59t-79.5 -21t-80 21t-58.5 59t-20.5 79t21 79t59 59t79 21z" />
    <glyph glyph-name="cent" unicode="&#xa2;" horiz-adv-x="1139" 
 />
    <glyph glyph-name="sterling" unicode="&#xa3;" horiz-adv-x="1139" 
 />
    <glyph glyph-name="yen" unicode="&#xa5;" horiz-adv-x="1139" 
 />
    <glyph glyph-name="brokenbar" unicode="&#xa6;" horiz-adv-x="532" 
 />
    <glyph glyph-name="section" unicode="&#xa7;" horiz-adv-x="1139" 
 />
    <glyph glyph-name="dieresis" unicode="&#xa8;" horiz-adv-x="881" 
d="M818 1607q0 -40 -21 -78t-59 -59.5t-80 -21.5q-41 0 -79 21t-59 59t-21 79q0 42 21 80t59 58.5t79 20.5q42 0 80 -21t59 -59t21 -79zM367 1607q0 -40 -20.5 -78t-58.5 -59.5t-81 -21.5q-40 0 -78 21.5t-59 59t-21 78.5q0 42 21 80t59 59t78 21q43 0 81 -21.5t58.5 -59.5
t20.5 -79z" />
    <glyph glyph-name="copyright" unicode="&#xa9;" horiz-adv-x="1509" 
 />
    <glyph glyph-name="ordfeminine" unicode="&#xaa;" horiz-adv-x="758" 
 />
    <glyph glyph-name="guillemotleft" unicode="&#xab;" horiz-adv-x="1139" 
 />
    <glyph glyph-name="logicalnot" unicode="&#xac;" horiz-adv-x="1196" 
 />
    <glyph glyph-name="registered" unicode="&#xae;" horiz-adv-x="1509" 
 />
    <glyph glyph-name="degree" unicode="&#xb0;" horiz-adv-x="819" 
 />
    <glyph glyph-name="plusminus" unicode="&#xb1;" horiz-adv-x="1124" 
 />
    <glyph glyph-name="twosuperior" unicode="&#xb2;" horiz-adv-x="682" 
 />
    <glyph glyph-name="threesuperior" unicode="&#xb3;" horiz-adv-x="682" 
 />
    <glyph glyph-name="acute" unicode="&#xb4;" horiz-adv-x="620" 
d="M477 1802q68 0 68 -41q0 -28 -30 -73l-113 -170q-75 -114 -188 -114h-1q-68 0 -68 41q0 27 29 71l114 172q77 114 189 114z" />
    <glyph glyph-name="mu1" unicode="&#xb5;" horiz-adv-x="1180" 
 />
    <glyph glyph-name="paragraph" unicode="&#xb6;" horiz-adv-x="1100" 
 />
    <glyph glyph-name="periodcentered" unicode="&#xb7;" horiz-adv-x="569" 
 />
    <glyph glyph-name="periodcentered" unicode="&#x2219;" horiz-adv-x="569" 
 />
    <glyph glyph-name="cedilla" unicode="&#xb8;" horiz-adv-x="682" 
d="M273 -387q-64 0 -66 58q1 56 67 58h164q33 -1 33 28t-34 30q-66 -2 -115.5 41t-50.5 101q-1 57 64 57h5q63 0 63 -56q2 -30 33 -30q168 1 168 -142q0 -145 -231 -145h-100z" />
    <glyph glyph-name="onesuperior" unicode="&#xb9;" horiz-adv-x="682" 
 />
    <glyph glyph-name="ordmasculine" unicode="&#xba;" horiz-adv-x="748" 
 />
    <glyph glyph-name="guillemotright" unicode="&#xbb;" horiz-adv-x="1139" 
 />
    <glyph glyph-name="onequarter" unicode="&#xbc;" horiz-adv-x="1708" 
 />
    <glyph glyph-name="onehalf" unicode="&#xbd;" horiz-adv-x="1708" 
 />
    <glyph glyph-name="threequarters" unicode="&#xbe;" horiz-adv-x="1708" 
 />
    <glyph glyph-name="questiondown" unicode="&#xbf;" horiz-adv-x="1236" 
d="M716 1q-557 0 -558 402v1q0 397 405 395q76 0 80 84q0 160 158 157q162 3 160 -161q-1 -160 -121 -279.5t-280 -116.5q-81 -2 -81 -82t79 -79h397q158 -4 161 -162q-4 -159 -160 -159h-240zM797 1123q-40 0 -78 20.5t-59.5 58.5t-21.5 80q0 41 21 79t59 58.5t79 20.5
q42 0 80 -20.5t58.5 -58.5t20.5 -79q0 -42 -21 -80t-59 -58.5t-79 -20.5z" />
    <glyph glyph-name="Agrave" unicode="&#xc0;" horiz-adv-x="1425" 
d="M235 -1q-41 0 -79 20.5t-59.5 59t-21.5 80.5t239 522.5t260 518.5t59.5 59.5t79.5 21.5q42 0 80 -21.5t59 -59.5t261.5 -518.5t240.5 -522.5t-21.5 -80.5t-60 -59t-78.5 -20.5h-959zM933 321l-220 451l-220 -451h440zM659 1688l114 -172q29 -44 29 -71q0 -41 -68 -41h-1
q-113 0 -188 114l-113 170q-30 45 -30 73q0 41 68 41q112 0 189 -114z" />
    <glyph glyph-name="Aacute" unicode="&#xc1;" horiz-adv-x="1425" 
d="M232 -1q-41 0 -79 20.5t-59.5 59t-21.5 80.5t239 522.5t260 518.5t59.5 59.5t79.5 21.5q42 0 80 -21.5t59 -59.5t261.5 -518.5t240.5 -522.5t-21.5 -80.5t-60 -59t-78.5 -20.5h-959zM930 321l-220 451l-220 -451h440zM975 1802q68 0 68 -41q0 -28 -30 -73l-113 -170
q-75 -114 -188 -114h-1q-68 0 -68 41q0 27 29 71l114 172q77 114 189 114z" />
    <glyph glyph-name="Acircumflex" unicode="&#xc2;" horiz-adv-x="1425" 
d="M232 -1q-41 0 -79 20.5t-59.5 59t-21.5 80.5t239 522.5t260 518.5t59.5 59.5t79.5 21.5q42 0 80 -21.5t59 -59.5t261.5 -518.5t240.5 -522.5t-21.5 -80.5t-60 -59t-78.5 -20.5h-959zM930 321l-220 451l-220 -451h440zM813.5 1407q-16.5 9 -25.5 25.5t-78 151.5
q-65 -133 -74 -149.5t-26 -25.5t-34 -9t-33.5 9t-26 25.5t-9.5 34.5t67 150.5t76 149t26 25.5t34 9q18 0 34.5 -9t26 -25.5t78 -150t68.5 -151.5t-9.5 -34.5t-26 -25.5t-33.5 -9q-18 0 -34.5 9z" />
    <glyph glyph-name="Atilde" unicode="&#xc3;" horiz-adv-x="1425" 
d="M232 -1q-41 0 -79 20.5t-59.5 59t-21.5 80.5t239 522.5t260 518.5t59.5 59.5t79.5 21.5q42 0 80 -21.5t59 -59.5t261.5 -518.5t240.5 -522.5t-21.5 -80.5t-60 -59t-78.5 -20.5h-959zM930 321l-220 451l-220 -451h440zM842 1725q24 17 45 17q28 0 52 -32l1 -2
q58 -79 58 -144q0 -73 -74 -127l-2 -1q-52 -38 -102 -38q-83 0 -160 106l-41 55q-41 58 -70 37q-28 -21 13 -78l-1 -2q41 -54 -15 -95q-22 -17 -43 -17q-28 0 -52 32q-58 81 -58 146q0 73 73 126q54 39 105 39q84 0 161 -106l40 -55q42 -57 69 -38q28 21 -13 78l-3 3
q-39 55 17 96z" />
    <glyph glyph-name="Adieresis" unicode="&#xc4;" horiz-adv-x="1425" 
d="M232 -1q-41 0 -79 20.5t-59.5 59t-21.5 80.5t239 522.5t260 518.5t59.5 59.5t79.5 21.5q42 0 80 -21.5t59 -59.5t261.5 -518.5t240.5 -522.5t-21.5 -80.5t-60 -59t-78.5 -20.5h-959zM930 321l-220 451l-220 -451h440zM1091 1607q0 -40 -21 -78t-59 -59.5t-80 -21.5
q-41 0 -79 21.5t-59 59t-21 78.5q0 42 21 80t59 59t79 21q42 0 80 -21.5t59 -59.5t21 -79zM640 1607q0 -40 -20.5 -78t-58.5 -59.5t-81 -21.5q-41 0 -79 21.5t-58.5 59t-20.5 78.5q0 42 20.5 80t58.5 59t79 21q43 0 81 -21.5t58.5 -59.5t20.5 -79z" />
    <glyph glyph-name="Aring" unicode="&#xc5;" horiz-adv-x="1366" 
 />
    <glyph glyph-name="AE" unicode="&#xc6;" horiz-adv-x="2048" 
 />
    <glyph glyph-name="Ccedilla" unicode="&#xc7;" 
d="M710 1279l321 -1q159 -2 160 -158q-1 -162 -161 -161l-319 -1q-319 3 -319 -319q0 -318 320 -320h318q160 -3 160 -158q0 -160 -158 -161h-320q-640 0 -641 640q0 639 637 639h2zM570 -387q-65 0 -66 57q1 57 66 58h165q33 0 33 28.5t-34 29.5q-66 -1 -116 42t-50 100
q-1 58 64 58h5q63 0 63 -56q1 -30 33 -30q168 0 168 -142q-1 -145 -232 -145h-99z" />
    <glyph glyph-name="Egrave" unicode="&#xc8;" 
d="M231 1281l810 -2q149 -2 150 -155q0 -163 -162 -166h-637v-637h636q161 -1 161 -162q0 -157 -158 -159h-800q-159 0 -160 155v964q1 159 160 162zM469 636q1 160 158 162h322q160 -1 162 -160q-3 -160 -162 -160h-321q-159 -1 -159 158zM602 1688l114 -172q29 -44 29 -71
q0 -41 -68 -41h-1q-113 0 -188 114l-113 170q-30 45 -30 73q0 41 68 41q112 0 189 -114z" />
    <glyph glyph-name="Eacute" unicode="&#xc9;" 
d="M231 1281l810 -2q149 -2 150 -155q0 -163 -162 -166h-637v-637h636q161 -1 161 -162q0 -157 -158 -159h-800q-159 0 -160 155v964q1 159 160 162zM469 636q1 160 158 162h322q160 -1 162 -160q-3 -160 -162 -160h-321q-159 -1 -159 158zM854 1802q68 0 68 -41
q0 -28 -30 -73l-113 -170q-75 -114 -188 -114h-1q-68 0 -68 41q0 27 29 71l114 172q77 114 189 114z" />
    <glyph glyph-name="Ecircumflex" unicode="&#xca;" 
d="M231 1281l810 -2q149 -2 150 -155q0 -163 -162 -166h-637v-637h636q161 -1 161 -162q0 -157 -158 -159h-800q-159 0 -160 155v964q1 159 160 162zM469 636q1 160 158 162h322q160 -1 162 -160q-3 -160 -162 -160h-321q-159 -1 -159 158zM750.5 1407q-16.5 9 -26 25.5
t-77.5 151.5q-65 -133 -74.5 -149.5t-26 -25.5t-33.5 -9q-18 0 -34 9t-25.5 25.5t-9.5 34.5t67 150.5t76 149t25.5 25.5t34.5 9t34.5 -9t25.5 -25.5t77.5 -150t68.5 -151.5t-9 -34.5t-25.5 -25.5t-34.5 -9q-17 0 -33.5 9z" />
    <glyph glyph-name="Edieresis" unicode="&#xcb;" 
d="M231 1281l810 -2q149 -2 150 -155q0 -163 -162 -166h-637v-637h636q161 -1 161 -162q0 -157 -158 -159h-800q-159 0 -160 155v964q1 159 160 162zM469 636q1 160 158 162h322q160 -1 162 -160q-3 -160 -162 -160h-321q-159 -1 -159 158zM1010 1607q0 -40 -20.5 -78
t-58.5 -59.5t-81 -21.5q-41 0 -79 21t-58.5 58.5t-20.5 79.5q0 41 20.5 79t58.5 59t79 21q43 0 81 -21t58.5 -59t20.5 -79zM560 1607q0 -40 -21 -78t-59 -59.5t-80 -21.5q-41 0 -79 21t-58.5 58.5t-20.5 79.5t20.5 80t58.5 58.5t79 20.5q42 0 80 -21t59 -59t21 -79z" />
    <glyph glyph-name="Igrave" unicode="&#xcc;" horiz-adv-x="464" 
d="M230 1278q160 -1 162 -158v-962q-2 -159 -161 -162q-160 4 -160 162v961q-1 159 159 159zM172 1688l114 -172q29 -44 29 -71q0 -41 -68 -41h-1q-113 0 -188 114l-113 170q-30 45 -30 73q0 41 68 41q112 0 189 -114z" />
    <glyph glyph-name="Iacute" unicode="&#xcd;" horiz-adv-x="464" 
d="M230 1278q160 -1 163 -158v-962q-2 -159 -161 -162q-160 4 -160 162v961q-1 159 158 159zM485 1802q68 0 68 -41q0 -28 -30 -73l-113 -170q-75 -114 -188 -114h-1q-68 0 -68 41q0 27 29 71l114 172q77 114 189 114z" />
    <glyph glyph-name="Icircumflex" unicode="&#xce;" horiz-adv-x="464" 
d="M230 1278q160 -1 163 -158v-962q-2 -159 -161 -162q-160 4 -160 162v961q-1 159 158 159zM310 1407q-13 9 -20.5 25.5t-61.5 151.5q-53 -133 -60 -149.5t-20.5 -25.5t-27.5 -9t-27 9t-20.5 25.5t-7.5 34.5t53.5 150.5t61 148.5t20.5 25.5t28 9.5q14 0 27 -9.5t20.5 -25.5
t62.5 -149.5t55 -151.5t-7.5 -34.5t-21 -25.5t-27.5 -9t-27 9z" />
    <glyph glyph-name="Idieresis" unicode="&#xcf;" horiz-adv-x="464" 
d="M230 1278q160 -1 163 -158v-962q-2 -159 -161 -162q-160 4 -160 162v961q-1 159 158 159zM610 1608q0 -40 -21 -78t-59 -60t-80 -22q-41 0 -79 21.5t-59 59t-21 79.5q0 41 21 79t59 59t79 21q42 0 80 -21.5t59 -59.5t21 -78zM159 1608q0 -40 -20.5 -78t-58.5 -59.5
t-80 -21.5q-41 0 -79 21t-59 58.5t-21 79.5q0 41 21 79t59 59t79 21q42 0 80 -21t58.5 -59t20.5 -79z" />
    <glyph glyph-name="Eth" unicode="&#xd0;" horiz-adv-x="1479" 
 />
    <glyph glyph-name="Ntilde" unicode="&#xd1;" 
d="M254 1278q87 -7 139 -66l479 -611v537q3 137 136 140q180 -3 182 -144l1 -995q-1 -137 -183 -139q-82 1 -134 66l-481 609v-536q-1 -138 -139 -139q-181 0 -182 141v998q0 138 182 139zM763 1725q24 17 45 17q28 0 52 -32l1 -2q58 -79 58 -144q0 -73 -74 -127l-2 -1
q-52 -38 -102 -38q-83 0 -160 106l-41 55q-41 58 -70 37q-28 -21 13 -78l-1 -2q41 -54 -15 -95q-22 -17 -43 -17q-28 0 -52 32q-58 81 -58 146q0 73 73 126q54 39 105 39q84 0 161 -106l40 -55q42 -57 69 -38q28 21 -13 78l-3 3q-39 55 17 96z" />
    <glyph glyph-name="Ograve" unicode="&#xd2;" horiz-adv-x="1425" 
d="M710 1279q162 0 315 -83t240 -237t87 -321q0 -166 -84.5 -318.5t-237.5 -237t-320 -84.5q-166 0 -318.5 84.5t-237 237t-84.5 318.5q0 167 85.5 321t239 237t315.5 83zM553.5 919q-76.5 -41 -119.5 -118t-43 -161t42.5 -160t118.5 -118t160 -42q83 0 159.5 42t118.5 118
t42 160t-43 161t-120 118t-157 41q-82 0 -158.5 -41zM668 1688l114 -172q29 -44 29 -71q0 -41 -68 -41h-1q-113 0 -188 114l-113 170q-30 45 -30 73q0 41 68 41q112 0 189 -114z" />
    <glyph glyph-name="Oacute" unicode="&#xd3;" horiz-adv-x="1425" 
d="M710 1279q162 0 315 -83t240 -237t87 -321q0 -166 -84.5 -318.5t-237.5 -237t-320 -84.5q-166 0 -318.5 84.5t-237 237t-84.5 318.5q0 167 85.5 321t239 237t315.5 83zM553.5 919q-76.5 -41 -119.5 -118t-43 -161t42.5 -160t118.5 -118t160 -42q83 0 159.5 42t118.5 118
t42 160t-43 161t-120 118t-157 41q-82 0 -158.5 -41zM968 1802q68 0 68 -41q0 -28 -30 -73l-113 -170q-75 -114 -188 -114h-1q-68 0 -68 41q0 27 29 71l114 172q77 114 189 114z" />
    <glyph glyph-name="Ocircumflex" unicode="&#xd4;" horiz-adv-x="1425" 
d="M710 1279q162 0 315 -83t240 -237t87 -321q0 -166 -84.5 -318.5t-237.5 -237t-320 -84.5q-166 0 -318.5 84.5t-237 237t-84.5 318.5q0 167 85.5 321t239 237t315.5 83zM553.5 919q-76.5 -41 -119.5 -118t-43 -161t42.5 -160t118.5 -118t160 -42q83 0 159.5 42t118.5 118
t42 160t-43 161t-120 118t-157 41q-82 0 -158.5 -41zM821.5 1407q-16.5 9 -25.5 25.5t-78 150.5q-65 -133 -74 -149.5t-26 -25.5t-34 -9t-33.5 9t-26 25.5t-9.5 34.5t67 151t76 149t26 25t34 9q18 0 34.5 -9t26 -25t78 -149.5t68.5 -151.5t-9.5 -34.5t-26 -25.5t-33.5 -9
q-18 0 -34.5 9z" />
    <glyph glyph-name="Otilde" unicode="&#xd5;" horiz-adv-x="1425" 
d="M710 1279q162 0 315 -83t240 -237t87 -321q0 -166 -84.5 -318.5t-237.5 -237t-320 -84.5q-166 0 -318.5 84.5t-237 237t-84.5 318.5q0 167 85.5 321t239 237t315.5 83zM553.5 919q-76.5 -41 -119.5 -118t-43 -161t42.5 -160t118.5 -118t160 -42q83 0 159.5 42t118.5 118
t42 160t-43 161t-120 118t-157 41q-82 0 -158.5 -41zM849 1725q24 17 45 17q28 0 52 -32l1 -2q58 -79 58 -144q0 -73 -74 -127l-2 -1q-52 -38 -102 -38q-83 0 -160 106l-41 55q-41 58 -70 37q-28 -21 13 -78l-1 -2q41 -54 -15 -95q-22 -17 -43 -17q-28 0 -52 32
q-58 81 -58 146q0 73 73 126q54 39 105 39q84 0 161 -106l40 -55q42 -57 69 -38q28 21 -13 78l-3 3q-39 55 17 96z" />
    <glyph glyph-name="Odieresis" unicode="&#xd6;" horiz-adv-x="1425" 
d="M710 1279q162 0 315 -83t240 -237t87 -321q0 -166 -84.5 -318.5t-237.5 -237t-320 -84.5q-166 0 -318.5 84.5t-237 237t-84.5 318.5q0 167 85.5 321t239 237t315.5 83zM553.5 919q-76.5 -41 -119.5 -118t-43 -161t42.5 -160t118.5 -118t160 -42q83 0 159.5 42t118.5 118
t42 160t-43 161t-120 118t-157 41q-82 0 -158.5 -41zM1098 1607q0 -40 -21 -78t-59 -59.5t-80 -21.5q-41 0 -79 21t-58.5 59t-20.5 79q0 42 20.5 80t58.5 58.5t79 20.5q42 0 80 -21t59 -59t21 -79zM648 1607q0 -40 -21 -78t-59 -59.5t-80 -21.5q-41 0 -79 21t-59 59t-21 79
q0 42 21 80t59 58.5t79 20.5q42 0 80 -21t59 -59t21 -79z" />
    <glyph glyph-name="multiply" unicode="&#xd7;" horiz-adv-x="1196" 
 />
    <glyph glyph-name="Oslash" unicode="&#xd8;" horiz-adv-x="1593" 
 />
    <glyph glyph-name="Ugrave" unicode="&#xd9;" horiz-adv-x="1266" 
d="M235 1281q160 0 161 -155l-1 -487q2 -320 243 -321q240 2 239 322v481q2 159 161 161q159 -4 160 -162v-481q-1 -639 -560 -639q-562 -4 -563 639v482q1 158 160 160zM619 1688l114 -172q29 -44 29 -71q0 -41 -68 -41h-1q-113 0 -188 114l-113 170q-30 45 -30 73
q0 41 68 41q112 0 189 -114z" />
    <glyph glyph-name="Uacute" unicode="&#xda;" horiz-adv-x="1266" 
d="M235 1281q160 0 161 -155l-1 -487q2 -320 243 -321q240 2 239 322v481q2 159 161 161q159 -4 160 -162v-481q-1 -639 -560 -639q-562 -4 -563 639v482q1 158 160 160zM852 1802q68 0 68 -41q0 -28 -30 -73l-113 -170q-75 -114 -188 -114h-1q-68 0 -68 41q0 27 29 71
l114 172q77 114 189 114z" />
    <glyph glyph-name="Ucircumflex" unicode="&#xdb;" horiz-adv-x="1266" 
d="M235 1281q160 0 161 -155l-1 -487q2 -320 243 -321q240 2 239 322v481q2 159 161 161q159 -4 160 -162v-481q-1 -639 -560 -639q-562 -4 -563 639v482q1 158 160 160zM731.5 1407q-16.5 9 -25.5 25.5t-77 151.5q-66 -133 -75 -149.5t-25.5 -25.5t-34.5 -9q-17 0 -33.5 9
t-26 25.5t-9.5 34.5t67.5 150.5t76.5 148.5t25.5 25.5t34.5 9.5t34 -9.5t25.5 -25.5t78 -149.5t68.5 -151.5t-9.5 -34.5t-26 -25.5t-33.5 -9q-18 0 -34.5 9z" />
    <glyph glyph-name="Udieresis" unicode="&#xdc;" horiz-adv-x="1266" 
d="M235 1281q160 0 161 -155l-1 -487q2 -320 243 -321q240 2 239 322v481q2 159 161 161q159 -4 160 -162v-481q-1 -639 -560 -639q-562 -4 -563 639v482q1 158 160 160zM1011 1607q0 -40 -21 -78t-59 -59.5t-80 -21.5q-41 0 -79 21.5t-59 59t-21 78.5q0 42 21 80t59 59
t79 21q42 0 80 -21.5t59 -59.5t21 -79zM561 1608q0 -40 -21 -78t-59 -60t-80 -22q-41 0 -79 21.5t-59 59t-21 79.5q0 41 21 79t59 59t79 21q42 0 80 -21.5t59 -59.5t21 -78z" />
    <glyph glyph-name="Yacute" unicode="&#xdd;" horiz-adv-x="1366" 
 />
    <glyph glyph-name="Thorn" unicode="&#xde;" horiz-adv-x="1366" 
 />
    <glyph glyph-name="germandbls" unicode="&#xdf;" horiz-adv-x="1270" 
d="M637 1279h162q159 0 281 -120q119 -118 119 -275v-5q-2 -161 -83 -237q84 -83 84 -236v-6q-2 -158 -122.5 -279t-268.5 -121h-143q-156 0 -156 160q0 158 160 158l127 3q81 0 81 79q0 81 -79 81l-29 1q-162 0 -161 168q0 152 160 150l30 -1q80 0 78 88q2 71 -78 71h-213
q-190 -32 -192 -316l1 -487q-1 -155 -161 -155q-157 2 -158 160v482q1 639 554 639h7v-2z" />
    <glyph glyph-name="agrave" unicode="&#xe0;" horiz-adv-x="1425" 
d="M235 -1q-41 0 -79 20.5t-59.5 59t-21.5 80.5t239 522.5t260 518.5t59.5 59.5t79.5 21.5q42 0 80 -21.5t59 -59.5t261.5 -518.5t240.5 -522.5t-21.5 -80.5t-60 -59t-78.5 -20.5h-959zM933 321l-220 451l-220 -451h440zM659 1688l114 -172q29 -44 29 -71q0 -41 -68 -41h-1
q-113 0 -188 114l-113 170q-30 45 -30 73q0 41 68 41q112 0 189 -114z" />
    <glyph glyph-name="aacute" unicode="&#xe1;" horiz-adv-x="1425" 
d="M232 -1q-41 0 -79 20.5t-59.5 59t-21.5 80.5t239 522.5t260 518.5t59.5 59.5t79.5 21.5q42 0 80 -21.5t59 -59.5t261.5 -518.5t240.5 -522.5t-21.5 -80.5t-60 -59t-78.5 -20.5h-959zM930 321l-220 451l-220 -451h440zM975 1802q68 0 68 -41q0 -28 -30 -73l-113 -170
q-75 -114 -188 -114h-1q-68 0 -68 41q0 27 29 71l114 172q77 114 189 114z" />
    <glyph glyph-name="acircumflex" unicode="&#xe2;" horiz-adv-x="1425" 
d="M232 -1q-41 0 -79 20.5t-59.5 59t-21.5 80.5t239 522.5t260 518.5t59.5 59.5t79.5 21.5q42 0 80 -21.5t59 -59.5t261.5 -518.5t240.5 -522.5t-21.5 -80.5t-60 -59t-78.5 -20.5h-959zM930 321l-220 451l-220 -451h440zM813.5 1407q-16.5 9 -26 25.5t-77.5 150.5
q-65 -132 -74.5 -149t-26 -26t-33.5 -9q-18 0 -34 9t-25.5 26t-9.5 35q0 17 67 150t76 149t25.5 25.5t34.5 9.5t34.5 -9.5t25.5 -25.5t77.5 -149.5t68.5 -151.5t-9 -34.5t-25.5 -25.5t-34.5 -9q-17 0 -33.5 9z" />
    <glyph glyph-name="atilde" unicode="&#xe3;" horiz-adv-x="1425" 
d="M232 -1q-41 0 -79 20.5t-59.5 59t-21.5 80.5t239 522.5t260 518.5t59.5 59.5t79.5 21.5q42 0 80 -21.5t59 -59.5t261.5 -518.5t240.5 -522.5t-21.5 -80.5t-60 -59t-78.5 -20.5h-959zM930 321l-220 451l-220 -451h440zM842 1725q24 17 45 17q28 0 52 -32l1 -2
q58 -79 58 -144q0 -73 -74 -127l-2 -1q-52 -38 -102 -38q-83 0 -160 106l-41 55q-41 58 -70 37q-28 -21 13 -78l-1 -2q41 -54 -15 -95q-22 -17 -43 -17q-28 0 -52 32q-58 81 -58 146q0 73 73 126q54 39 105 39q84 0 161 -106l40 -55q42 -57 69 -38q28 21 -13 78l-3 3
q-39 55 17 96z" />
    <glyph glyph-name="adieresis" unicode="&#xe4;" horiz-adv-x="1425" 
d="M232 -1q-41 0 -79 20.5t-59.5 59t-21.5 80.5t239 522.5t260 518.5t59.5 59.5t79.5 21.5q42 0 80 -21.5t59 -59.5t261.5 -518.5t240.5 -522.5t-21.5 -80.5t-60 -59t-78.5 -20.5h-959zM930 321l-220 451l-220 -451h440zM1091 1607q0 -40 -21 -78t-59 -59.5t-80 -21.5
q-41 0 -79 21t-59 59t-21 79q0 42 21 80t59 58.5t79 20.5q42 0 80 -21t59 -59t21 -79zM640 1607q0 -40 -20.5 -78t-58.5 -59.5t-81 -21.5q-40 0 -78 21.5t-59 59t-21 78.5q0 42 21 80t59 59t78 21q43 0 81 -21.5t58.5 -59.5t20.5 -79z" />
    <glyph glyph-name="aring" unicode="&#xe5;" horiz-adv-x="1139" 
 />
    <glyph glyph-name="ae" unicode="&#xe6;" horiz-adv-x="1821" 
 />
    <glyph glyph-name="ccedilla" unicode="&#xe7;" 
d="M710 1279l321 -1q159 -2 160 -158q-1 -162 -161 -161l-319 -1q-319 3 -319 -319q0 -318 320 -320h318q160 -3 160 -158q0 -160 -158 -161h-320q-640 0 -641 640q0 639 637 639h2zM570 -387q-64 0 -66 58q1 56 67 58h164q33 -1 33 28t-34 30q-66 -2 -115.5 41t-50.5 101
q-1 57 64 57h5q63 0 63 -56q2 -30 33 -30q168 1 168 -142q0 -145 -231 -145h-100z" />
    <glyph glyph-name="egrave" unicode="&#xe8;" 
d="M231 1281l810 -2q149 -2 150 -155q0 -163 -162 -166h-637v-637h636q161 -1 161 -162q0 -157 -158 -159h-800q-159 0 -160 155v964q1 159 160 162zM469 636q1 160 158 162h322q160 -1 162 -160q-3 -160 -162 -160h-321q-159 -1 -159 158zM602 1688l114 -172q29 -44 29 -71
q0 -41 -68 -41h-1q-113 0 -188 114l-113 170q-30 45 -30 73q0 41 68 41q112 0 189 -114z" />
    <glyph glyph-name="eacute" unicode="&#xe9;" 
d="M231 1281l810 -2q149 -2 150 -155q0 -163 -162 -166h-637v-637h636q161 -1 161 -162q0 -157 -158 -159h-800q-159 0 -160 155v964q1 159 160 162zM469 636q1 160 158 162h322q160 -1 162 -160q-3 -160 -162 -160h-321q-159 -1 -159 158zM854 1802q68 0 68 -41
q0 -28 -30 -73l-113 -170q-75 -114 -188 -114h-1q-68 0 -68 41q0 27 29 71l114 172q77 114 189 114z" />
    <glyph glyph-name="ecircumflex" unicode="&#xea;" 
d="M231 1281l810 -2q149 -2 150 -155q0 -163 -162 -166h-637v-637h636q161 -1 161 -162q0 -157 -158 -159h-800q-159 0 -160 155v964q1 159 160 162zM469 636q1 160 158 162h322q160 -1 162 -160q-3 -160 -162 -160h-321q-159 -1 -159 158zM750.5 1407q-16.5 9 -26 25.5
t-77.5 150.5q-65 -132 -74.5 -149t-26 -26t-33.5 -9q-18 0 -34 9t-25.5 26t-9.5 35q0 17 67 150t76 149t25.5 25.5t34.5 9.5t34.5 -9.5t25.5 -25.5t77.5 -149.5t68.5 -151.5t-9 -34.5t-25.5 -25.5t-34.5 -9q-17 0 -33.5 9z" />
    <glyph glyph-name="edieresis" unicode="&#xeb;" 
d="M231 1281l810 -2q149 -2 150 -155q0 -163 -162 -166h-637v-637h636q161 -1 161 -162q0 -157 -158 -159h-800q-159 0 -160 155v964q1 159 160 162zM469 636q1 160 158 162h322q160 -1 162 -160q-3 -160 -162 -160h-321q-159 -1 -159 158zM1011 1607q0 -40 -21 -78
t-59 -59.5t-80 -21.5q-41 0 -79 21t-59 59t-21 79q0 42 21 80t59 58.5t79 20.5q42 0 80 -21t59 -59t21 -79zM560 1607q0 -40 -20.5 -78t-58.5 -59.5t-81 -21.5q-40 0 -78 21.5t-59 59t-21 78.5q0 42 21 80t59 59t78 21q43 0 81 -21.5t58.5 -59.5t20.5 -79z" />
    <glyph glyph-name="igrave" unicode="&#xec;" horiz-adv-x="464" 
d="M230 1278q160 -1 163 -158v-962q-2 -159 -161 -162q-160 4 -160 162v961q-1 159 158 159zM172 1688l114 -172q29 -44 29 -71q0 -41 -68 -41h-1q-113 0 -188 114l-113 170q-30 45 -30 73q0 41 68 41q112 0 189 -114z" />
    <glyph glyph-name="iacute" unicode="&#xed;" horiz-adv-x="464" 
d="M230 1278q160 -1 163 -158v-962q-2 -159 -161 -162q-160 4 -160 162v961q-1 159 158 159zM485 1802q68 0 68 -41q0 -28 -30 -73l-113 -170q-75 -114 -188 -114h-1q-68 0 -68 41q0 27 29 71l114 172q77 114 189 114z" />
    <glyph glyph-name="icircumflex" unicode="&#xee;" horiz-adv-x="464" 
d="M240 1278q160 -1 163 -158v-962q-2 -159 -161 -162q-160 4 -160 162v961q-1 159 158 159zM310.993 1407q-13.2002 9 -20.7998 25.5t-61.999 150.5q-51.999 -132 -59.5986 -149q-7.60059 -17 -20.7998 -26q-13.2002 -9 -26.7998 -9q-14.3994 0 -27.1992 9t-20.4004 26
q-7.59961 17 -7.59961 35q0 17 53.5996 150q53.5986 133 60.7988 149t20.3994 25.5q13.2002 9.5 27.5996 9.5t27.5996 -9.5t20.3994 -25.5q7.2002 -16 61.999 -149.5q54.7998 -133.5 54.7998 -151.5t-7.2002 -34.5t-20.3994 -25.5q-13.2002 -9 -27.5996 -9
q-13.5996 0 -26.7998 9z" />
    <glyph glyph-name="idieresis" unicode="&#xef;" horiz-adv-x="464" 
d="M230 1278q160 -1 163 -158v-962q-2 -159 -161 -162q-160 4 -160 162v961q-1 159 158 159zM610 1607q0 -40 -21 -78t-59 -59.5t-80 -21.5q-41 0 -79 21t-59 59t-21 79q0 42 21 80t59 58.5t79 20.5q42 0 80 -21t59 -59t21 -79zM159 1607q0 -40 -20.5 -78t-58.5 -59.5
t-81 -21.5q-40 0 -78 21.5t-59 59t-21 78.5q0 42 21 80t59 59t78 21q43 0 81 -21.5t58.5 -59.5t20.5 -79z" />
    <glyph glyph-name="eth" unicode="&#xf0;" horiz-adv-x="1139" 
 />
    <glyph glyph-name="ntilde" unicode="&#xf1;" 
d="M254 1278q87 -7 139 -66l479 -611v537q3 137 136 140q180 -3 182 -144l1 -995q-1 -137 -183 -139q-82 1 -134 66l-481 609v-536q-1 -138 -139 -139q-181 0 -182 141v998q0 138 182 139zM763 1725q24 17 45 17q28 0 52 -32l1 -2q58 -79 58 -144q0 -73 -74 -127l-2 -1
q-52 -38 -102 -38q-83 0 -160 106l-41 55q-41 58 -70 37q-28 -21 13 -78l-1 -2q41 -54 -15 -95q-22 -17 -43 -17q-28 0 -52 32q-58 81 -58 146q0 73 73 126q54 39 105 39q84 0 161 -106l40 -55q42 -57 69 -38q28 21 -13 78l-3 3q-39 55 17 96z" />
    <glyph glyph-name="ograve" unicode="&#xf2;" horiz-adv-x="1425" 
d="M710 1279q162 0 315 -83t240 -237t87 -321q0 -166 -84.5 -318.5t-237.5 -237t-320 -84.5q-166 0 -318.5 84.5t-237 237t-84.5 318.5q0 167 85.5 321t239 237t315.5 83zM553.5 919q-76.5 -41 -119.5 -118t-43 -161t42.5 -160t118.5 -118t160 -42q83 0 159.5 42t118.5 118
t42 160t-43 161t-120 118t-157 41q-82 0 -158.5 -41zM668 1688l114 -172q29 -44 29 -71q0 -41 -68 -41h-1q-113 0 -188 114l-113 170q-30 45 -30 73q0 41 68 41q112 0 189 -114z" />
    <glyph glyph-name="oacute" unicode="&#xf3;" horiz-adv-x="1425" 
d="M710 1279q162 0 315 -83t240 -237t87 -321q0 -166 -84.5 -318.5t-237.5 -237t-320 -84.5q-166 0 -318.5 84.5t-237 237t-84.5 318.5q0 167 85.5 321t239 237t315.5 83zM553.5 919q-76.5 -41 -119.5 -118t-43 -161t42.5 -160t118.5 -118t160 -42q83 0 159.5 42t118.5 118
t42 160t-43 161t-120 118t-157 41q-82 0 -158.5 -41zM968 1802q68 0 68 -41q0 -28 -30 -73l-113 -170q-75 -114 -188 -114h-1q-68 0 -68 41q0 27 29 71l114 172q77 114 189 114z" />
    <glyph glyph-name="ocircumflex" unicode="&#xf4;" horiz-adv-x="1425" 
d="M710 1279q162 0 315 -83t240 -237t87 -321q0 -166 -84.5 -318.5t-237.5 -237t-320 -84.5q-166 0 -318.5 84.5t-237 237t-84.5 318.5q0 167 85.5 321t239 237t315.5 83zM553.5 919q-76.5 -41 -119.5 -118t-43 -161t42.5 -160t118.5 -118t160 -42q83 0 159.5 42t118.5 118
t42 160t-43 161t-120 118t-157 41q-82 0 -158.5 -41zM821.5 1407q-16.5 9 -26 25.5t-77.5 150.5q-65 -132 -74.5 -149t-26 -26t-33.5 -9q-18 0 -34 9t-25.5 26t-9.5 35q0 17 67 150t76 149t25.5 25.5t34.5 9.5t34.5 -9.5t25.5 -25.5t77.5 -149.5t68.5 -151.5t-9 -34.5
t-25.5 -25.5t-34.5 -9q-17 0 -33.5 9z" />
    <glyph glyph-name="otilde" unicode="&#xf5;" horiz-adv-x="1425" 
d="M710 1279q162 0 315 -83t240 -237t87 -321q0 -166 -84.5 -318.5t-237.5 -237t-320 -84.5q-166 0 -318.5 84.5t-237 237t-84.5 318.5q0 167 85.5 321t239 237t315.5 83zM553.5 919q-76.5 -41 -119.5 -118t-43 -161t42.5 -160t118.5 -118t160 -42q83 0 159.5 42t118.5 118
t42 160t-43 161t-120 118t-157 41q-82 0 -158.5 -41zM849 1725q24 17 45 17q28 0 52 -32l1 -2q58 -79 58 -144q0 -73 -74 -127l-2 -1q-52 -38 -102 -38q-83 0 -160 106l-41 55q-41 58 -70 37q-28 -21 13 -78l-1 -2q41 -54 -15 -95q-22 -17 -43 -17q-28 0 -52 32
q-58 81 -58 146q0 73 73 126q54 39 105 39q84 0 161 -106l40 -55q42 -57 69 -38q28 21 -13 78l-3 3q-39 55 17 96z" />
    <glyph glyph-name="odieresis" unicode="&#xf6;" horiz-adv-x="1425" 
d="M710 1279q162 0 315 -83t240 -237t87 -321q0 -166 -84.5 -318.5t-237.5 -237t-320 -84.5q-166 0 -318.5 84.5t-237 237t-84.5 318.5q0 167 85.5 321t239 237t315.5 83zM553.5 919q-76.5 -41 -119.5 -118t-43 -161t42.5 -160t118.5 -118t160 -42q83 0 159.5 42t118.5 118
t42 160t-43 161t-120 118t-157 41q-82 0 -158.5 -41zM1098 1607q0 -40 -21 -78t-59 -59.5t-80 -21.5q-41 0 -79 21t-59 59t-21 79q0 42 21 80t59 58.5t79 20.5q42 0 80 -21t59 -59t21 -79zM647 1607q0 -40 -20.5 -78t-58.5 -59.5t-81 -21.5q-40 0 -78 21.5t-59 59t-21 78.5
q0 42 21 80t59 59t78 21q43 0 81 -21.5t58.5 -59.5t20.5 -79z" />
    <glyph glyph-name="divide" unicode="&#xf7;" horiz-adv-x="1124" 
 />
    <glyph glyph-name="oslash" unicode="&#xf8;" horiz-adv-x="1251" 
 />
    <glyph glyph-name="ugrave" unicode="&#xf9;" horiz-adv-x="1266" 
d="M235 1281q160 0 161 -155l-1 -487q2 -320 243 -321q240 2 239 322v481q2 159 161 161q159 -4 160 -162v-481q-1 -639 -560 -639q-562 -4 -563 639v482q1 158 160 160zM619 1688l114 -172q29 -44 29 -71q0 -41 -68 -41h-1q-113 0 -188 114l-113 170q-30 45 -30 73
q0 41 68 41q112 0 189 -114z" />
    <glyph glyph-name="uacute" unicode="&#xfa;" horiz-adv-x="1266" 
d="M235 1281q160 0 161 -155l-1 -487q2 -320 243 -321q240 2 239 322v481q2 159 161 161q159 -4 160 -162v-481q-1 -639 -560 -639q-562 -4 -563 639v482q1 158 160 160zM852 1802q68 0 68 -41q0 -28 -30 -73l-113 -170q-75 -114 -188 -114h-1q-68 0 -68 41q0 27 29 71
l114 172q77 114 189 114z" />
    <glyph glyph-name="ucircumflex" unicode="&#xfb;" horiz-adv-x="1266" 
d="M235 1281q160 0 161 -155l-1 -487q2 -320 243 -321q240 2 239 322v481q2 159 161 161q159 -4 160 -162v-481q-1 -639 -560 -639q-562 -4 -563 639v482q1 158 160 160zM731.5 1407q-16.5 9 -26 25.5t-77.5 150.5q-65 -132 -74.5 -149t-26 -26t-33.5 -9q-18 0 -34 9
t-25.5 26t-9.5 35q0 17 67 150t76 149t25.5 25.5t34.5 9.5t34.5 -9.5t25.5 -25.5t77.5 -149.5t68.5 -151.5t-9 -34.5t-25.5 -25.5t-34.5 -9q-17 0 -33.5 9z" />
    <glyph glyph-name="udieresis" unicode="&#xfc;" horiz-adv-x="1266" 
d="M235 1281q160 0 161 -155l-1 -487q2 -320 243 -321q240 2 239 322v481q2 159 161 161q159 -4 160 -162v-481q-1 -639 -560 -639q-562 -4 -563 639v482q1 158 160 160zM1011 1607q0 -40 -21 -78t-59 -59.5t-80 -21.5q-41 0 -79 21t-59 59t-21 79q0 42 21 80t59 58.5
t79 20.5q42 0 80 -21t59 -59t21 -79zM560 1607q0 -40 -20.5 -78t-58.5 -59.5t-81 -21.5q-40 0 -78 21.5t-59 59t-21 78.5q0 42 21 80t59 59t78 21q43 0 81 -21.5t58.5 -59.5t20.5 -79z" />
    <glyph glyph-name="yacute" unicode="&#xfd;" horiz-adv-x="1024" 
 />
    <glyph glyph-name="thorn" unicode="&#xfe;" horiz-adv-x="1139" 
 />
    <glyph glyph-name="ydieresis" unicode="&#xff;" horiz-adv-x="1249" 
d="M219 1282q80 0 120.5 -39t284.5 -334q248 300 288.5 338.5t120.5 38.5q78 0 120 -40q40 -38 40 -112v-9q0 -85 -85 -159l-327 -382l-1 -425q-3 -157 -161 -159h-7q-151 0 -151 164l-2 422l-315 376q-85 74 -85 159v9q0 74 40 112q42 40 120 40zM1004 1607q0 -40 -21 -78
t-59 -59.5t-80 -21.5q-41 0 -79 21t-59 59t-21 79q0 42 21 80t59 58.5t79 20.5q42 0 80 -21t59 -59t21 -79zM553 1607q0 -40 -20.5 -78t-58.5 -59.5t-81 -21.5q-40 0 -78 21.5t-59 59t-21 78.5q0 42 21 80t59 59t78 21q43 0 81 -21.5t58.5 -59.5t20.5 -79z" />
    <glyph glyph-name="dotlessi" unicode="&#x131;" horiz-adv-x="464" 
d="M230 1278q160 -1 163 -158v-962q-2 -159 -161 -162q-160 4 -160 162v961q-1 159 158 159z" />
    <glyph glyph-name="Lslash" unicode="&#x141;" horiz-adv-x="1139" 
 />
    <glyph glyph-name="lslash" unicode="&#x142;" horiz-adv-x="455" 
 />
    <glyph glyph-name="OE" unicode="&#x152;" horiz-adv-x="2048" 
 />
    <glyph glyph-name="oe" unicode="&#x153;" horiz-adv-x="1933" 
 />
    <glyph glyph-name="Scaron" unicode="&#x160;" horiz-adv-x="1366" 
 />
    <glyph glyph-name="scaron" unicode="&#x161;" horiz-adv-x="1024" 
 />
    <glyph glyph-name="Ydieresis" unicode="&#x178;" horiz-adv-x="1249" 
d="M219 1282q80 0 120.5 -39t284.5 -334q248 300 288.5 338.5t120.5 38.5q78 0 120 -40q40 -38 40 -112v-9q0 -85 -85 -159l-327 -382l-1 -425q-3 -157 -161 -159h-7q-151 0 -151 164l-2 422l-315 376q-85 74 -85 159v9q0 74 40 112q42 40 120 40zM1003 1608
q0 -40 -20.5 -78t-58.5 -60t-81 -22q-40 0 -78 21.5t-59 59t-21 79.5q0 41 21 79t59 59t78 21q43 0 81 -21.5t58.5 -59.5t20.5 -78zM553 1608q0 -40 -20.5 -78t-58.5 -59.5t-81 -21.5q-41 0 -79 21t-58.5 58.5t-20.5 79.5q0 41 20.5 79t58.5 59t79 21q43 0 81 -21t58.5 -59
t20.5 -79z" />
    <glyph glyph-name="Zcaron" unicode="&#x17d;" horiz-adv-x="1251" 
 />
    <glyph glyph-name="zcaron" unicode="&#x17e;" horiz-adv-x="1024" 
 />
    <glyph glyph-name="florin" unicode="&#x192;" horiz-adv-x="1139" 
 />
    <glyph glyph-name="circumflex" unicode="&#x2c6;" horiz-adv-x="886" 
d="M557.5 1407q-16.5 9 -26 25.5t-77.5 150.5q-65 -132 -74.5 -149t-26 -26t-33.5 -9q-18 0 -34 9t-25.5 26t-9.5 35q0 17 67 150t76 149t25.5 25.5t34.5 9.5t34.5 -9.5t25.5 -25.5t77.5 -149.5t68.5 -151.5t-9 -34.5t-25.5 -25.5t-34.5 -9q-17 0 -33.5 9z" />
    <glyph glyph-name="caron" unicode="&#x2c7;" horiz-adv-x="682" 
 />
    <glyph glyph-name="macron" unicode="&#x2c9;" horiz-adv-x="682" 
 />
    <glyph glyph-name="breve" unicode="&#x2d8;" horiz-adv-x="682" 
 />
    <glyph glyph-name="dotaccent" unicode="&#x2d9;" horiz-adv-x="682" 
 />
    <glyph glyph-name="ring" unicode="&#x2da;" horiz-adv-x="682" 
 />
    <glyph glyph-name="ogonek" unicode="&#x2db;" horiz-adv-x="682" 
 />
    <glyph glyph-name="tilde" unicode="&#x2dc;" horiz-adv-x="682" 
d="M504 1725q24 17 45 17q28 0 52 -32l1 -2q58 -79 58 -144q0 -73 -74 -127l-2 -1q-52 -38 -102 -38q-83 0 -160 106l-41 55q-41 58 -70 37q-28 -21 13 -78l-1 -2q41 -54 -15 -95q-22 -17 -43 -17q-28 0 -52 32q-58 81 -58 146q0 73 73 126q54 39 105 39q84 0 161 -106
l40 -55q42 -57 69 -38q28 21 -13 78l-3 3q-39 55 17 96z" />
    <glyph glyph-name="hungarumlaut" unicode="&#x2dd;" horiz-adv-x="682" 
 />
    <glyph glyph-name="endash" unicode="&#x2013;" horiz-adv-x="1139" 
 />
    <glyph glyph-name="emdash" unicode="&#x2014;" horiz-adv-x="2048" 
 />
    <glyph glyph-name="quoteleft" unicode="&#x2018;" horiz-adv-x="472" 
d="M240 1501q159 0 160 -160v-240q0 -161 -158 -161h-2q-160 0 -160 158v242q2 161 160 161z" />
    <glyph glyph-name="quoteright" unicode="&#x2019;" horiz-adv-x="472" 
d="M240 1501q159 0 160 -160v-240q0 -161 -158 -161h-2q-160 0 -160 158v242q2 161 160 161z" />
    <glyph glyph-name="quotesinglbase" unicode="&#x201a;" horiz-adv-x="455" 
 />
    <glyph glyph-name="quotedblleft" unicode="&#x201c;" horiz-adv-x="911" 
d="M240 1501q159 0 160 -160v-240q0 -161 -158 -161h-2q-160 0 -160 158v242q2 161 160 161zM666 1501q159 0 160 -160v-240q0 -161 -158 -161h-2q-160 0 -160 158v242q2 161 160 161z" />
    <glyph glyph-name="quotedblright" unicode="&#x201d;" horiz-adv-x="911" 
d="M240 1501q159 0 160 -160v-240q0 -161 -158 -161h-2q-160 0 -160 158v242q2 161 160 161zM666 1501q159 0 160 -160v-240q0 -161 -158 -161h-2q-160 0 -160 158v242q2 161 160 161z" />
    <glyph glyph-name="quotedblbase" unicode="&#x201e;" horiz-adv-x="682" 
 />
    <glyph glyph-name="dagger" unicode="&#x2020;" horiz-adv-x="1139" 
 />
    <glyph glyph-name="daggerdbl" unicode="&#x2021;" horiz-adv-x="1139" 
 />
    <glyph glyph-name="bullet" unicode="&#x2022;" horiz-adv-x="717" 
 />
    <glyph glyph-name="ellipsis" unicode="&#x2026;" horiz-adv-x="2048" 
 />
    <glyph glyph-name="perthousand" unicode="&#x2030;" horiz-adv-x="2048" 
 />
    <glyph glyph-name="guilsinglleft" unicode="&#x2039;" horiz-adv-x="682" 
 />
    <glyph glyph-name="guilsinglright" unicode="&#x203a;" horiz-adv-x="682" 
 />
    <glyph glyph-name="fraction" unicode="&#x2044;" horiz-adv-x="342" 
 />
    <glyph glyph-name="fraction" unicode="&#x2215;" horiz-adv-x="342" 
 />
    <glyph glyph-name="Euro" unicode="&#x20ac;" horiz-adv-x="1312" 
d="M710 796q40 0 78 -20.5t59.5 -58.5t21.5 -81q0 -40 -21 -78t-58.5 -59t-79.5 -21t-80 21t-58.5 59t-20.5 78q0 43 21 81t59 58.5t79 20.5zM391 640q0 -84 42.5 -160t118.5 -118t160 -42q83 0 160 42q37 20 66 49l3 -3q16 18 38 30q38 21 79 21q40 0 78 -21t59.5 -59
t21.5 -80q0 -41 -21 -79q-17 -31 -45 -51q-54 -49 -121 -86q-153 -85 -320 -85q-166 0 -318.5 84.5t-237 237t-84.5 318.5q0 167 85.5 321t239 237t315.5 83t315 -83q70 -38 126 -90q27 -20 45 -50q21 -38 21 -80q0 -41 -21 -79t-58.5 -59t-79.5 -21t-80 21q-24 13 -41 34
l-1 -1q-30 28 -67 48q-77 41 -157 41q-82 0 -158.5 -41t-119.5 -118t-43 -161z" />
    <glyph glyph-name="trademark" unicode="&#x2122;" horiz-adv-x="2048" 
 />
    <glyph glyph-name="Ohm" unicode="&#x2126;" horiz-adv-x="1573" 
 />
    <glyph glyph-name="partialdiff" unicode="&#x2202;" horiz-adv-x="1012" 
 />
    <glyph glyph-name="Delta" unicode="&#x2206;" horiz-adv-x="1253" 
 />
    <glyph glyph-name="product" unicode="&#x220f;" horiz-adv-x="1686" 
 />
    <glyph glyph-name="summation" unicode="&#x2211;" horiz-adv-x="1460" 
 />
    <glyph glyph-name="minus" unicode="&#x2212;" horiz-adv-x="1196" 
 />
    <glyph glyph-name="radical" unicode="&#x221a;" horiz-adv-x="1124" 
 />
    <glyph glyph-name="infinity" unicode="&#x221e;" horiz-adv-x="1460" 
 />
    <glyph glyph-name="integral" unicode="&#x222b;" horiz-adv-x="561" 
 />
    <glyph glyph-name="approxequal" unicode="&#x2248;" horiz-adv-x="1124" 
 />
    <glyph glyph-name="notequal" unicode="&#x2260;" horiz-adv-x="1124" 
 />
    <glyph glyph-name="lessequal" unicode="&#x2264;" horiz-adv-x="1124" 
 />
    <glyph glyph-name="greaterequal" unicode="&#x2265;" horiz-adv-x="1124" 
 />
    <glyph glyph-name="lozenge" unicode="&#x25ca;" horiz-adv-x="1012" 
 />
    <glyph glyph-name="fi" unicode="&#xf001;" horiz-adv-x="1024" 
 />
    <glyph glyph-name="fi" unicode="&#xfb01;" horiz-adv-x="1024" 
 />
    <glyph glyph-name="fl" unicode="&#xf002;" horiz-adv-x="1024" 
 />
    <glyph glyph-name="fl" unicode="&#xfb02;" horiz-adv-x="1024" 
 />
    <glyph glyph-name="pi1" horiz-adv-x="1124" 
 />
  </font>
</defs>
</svg>
